<svg xmlns="http://www.w3.org/2000/svg" viewBox="0 0 134.71 76.26"><defs><style>.cls-1{fill:#545b8c;}</style></defs><g id="Layer_2" data-name="Layer 2"><g id="OBJECTS"><path class="cls-1" d="M134.71,22.18c-.75-.4-1.48-.83-2.19-1.3H132c-5.39-.14-14.55-.53-16.77-.23-10.76,1.46-15,3.2-22,6C88,28.79,82.88,31.12,77.7,33.34c0-.05-.08-.07-.13-.11a.55.55,0,0,0,.14-.75c-2.38-4.16-6.81-5.69-11.14-7.12a57.32,57.32,0,0,0-10.4-1.71c-2.69-.22-6.46-1.15-6.52-1.86-.15.32.48,1.05.56,1.08,2.79,4.26,5.81,8,10.68,10,4.41,1.81,9.18,2,13.89,1.73C70.57,36.33,66.32,38,62,39.36a78.46,78.46,0,0,1-16.74,3.47,21.28,21.28,0,0,0-3.07-.69.7.7,0,0,0,.24-1c-2.54-3.36-5.18-6.79-8.85-9-4.12-2.43-10-3.9-15.15-7.87-.49-.38.9,2,1.24,2.61C23.83,34.41,27.48,42.69,41.19,43c-1.79,0-3.58,0-5.36-.13C30.44,42.5,23.32,41,17.92,37.76a.66.66,0,0,0,0-.6c-1.34-3.28-1.61-6.84-2.43-10.27A60,60,0,0,0,13,18.71,46.24,46.24,0,0,0,3.42,3.59L.13.1C-.6-.68,1.93,3.36,2.21,4.17,3.79,8.66,5,13.65,4.32,18.35,3.7,22.64,9.24,34.53,15.83,37.94c.45.23,8,5.39,13.79,5.45a8.17,8.17,0,0,1,1.37.23c-7.72,1.25-18.82.06-24.68,5.15-.61.54,1.35.09,2-.14,8-2.68,19.88,2.88,25.27-4a.72.72,0,0,0,.65-.58,64.31,64.31,0,0,0,20.83-1.46c.61-.14,3.84-1.17,4.44-1.32C48.26,48.68,37.31,60.66,33.45,73.58a3,3,0,0,0-.55,2.15.67.67,0,0,0,1.29.09c.15-.55,4.46-4.42,5.57-5.15,1.58-1,3.14-2.08,4.67-3.19a53.35,53.35,0,0,0,9.25-8.18,29.38,29.38,0,0,0,7-17.44,3,3,0,0,1,.19-.78c8.23-2.5,21.88-8.62,29.49-11.94C82.06,34.69,70,46.43,62,52.57c-.52.4-2.33,2.35-1.69,2.26,14.42-2,25.12-12.48,28.25-22.69.09-.29.17-.5.22-.62,0,.08-.1.21-.19.38A38.86,38.86,0,0,1,65.21,51.63C73.88,44,81,36,92,28.61a.6.6,0,0,1,.27-.11s0,0-.06,0c8.61-3.8,17.65-6.82,27.17-6.7C119.42,21.76,125.92,22,134.71,22.18Z"/></g></g></svg>